<mxfile host="65bd71144e">
    <diagram id="SvLdbG8Bas9aw0cdpRwB" name="Page-1">
        <mxGraphModel dx="944" dy="1105" grid="0" gridSize="10" guides="1" tooltips="1" connect="1" arrows="1" fold="1" page="0" pageScale="1" pageWidth="827" pageHeight="1169" math="0" shadow="0">
            <root>
                <mxCell id="0"/>
                <mxCell id="1" parent="0"/>
                <mxCell id="t8sNuPc-GYWIgQTRH9a9-22" value="" style="rounded=0;whiteSpace=wrap;html=1;sketch=1;hachureGap=4;fontFamily=Architects Daughter;fontSource=https%3A%2F%2Ffonts.googleapis.com%2Fcss%3Ffamily%3DArchitects%2BDaughter;fontSize=20;" parent="1" vertex="1">
                    <mxGeometry x="95" y="-103" width="314" height="169" as="geometry"/>
                </mxCell>
                <mxCell id="t8sNuPc-GYWIgQTRH9a9-6" value="" style="rounded=0;whiteSpace=wrap;html=1;sketch=1;hachureGap=4;fontFamily=Architects Daughter;fontSource=https%3A%2F%2Ffonts.googleapis.com%2Fcss%3Ffamily%3DArchitects%2BDaughter;fontSize=20;" parent="1" vertex="1">
                    <mxGeometry x="251" y="122" width="75" height="34" as="geometry"/>
                </mxCell>
                <mxCell id="t8sNuPc-GYWIgQTRH9a9-1" value="" style="rounded=0;whiteSpace=wrap;html=1;sketch=1;hachureGap=4;fontFamily=Architects Daughter;fontSource=https%3A%2F%2Ffonts.googleapis.com%2Fcss%3Ffamily%3DArchitects%2BDaughter;fontSize=20;" parent="1" vertex="1">
                    <mxGeometry x="109" y="99" width="286" height="81" as="geometry"/>
                </mxCell>
                <mxCell id="t8sNuPc-GYWIgQTRH9a9-10" style="edgeStyle=none;curved=1;rounded=0;sketch=1;hachureGap=4;orthogonalLoop=1;jettySize=auto;html=1;exitX=0.5;exitY=1;exitDx=0;exitDy=0;fontFamily=Architects Daughter;fontSource=https%3A%2F%2Ffonts.googleapis.com%2Fcss%3Ffamily%3DArchitects%2BDaughter;fontSize=16;endArrow=open;startSize=14;endSize=14;sourcePerimeterSpacing=8;targetPerimeterSpacing=8;" parent="1" source="t8sNuPc-GYWIgQTRH9a9-2" edge="1">
                    <mxGeometry relative="1" as="geometry">
                        <mxPoint x="225.5" y="283" as="targetPoint"/>
                    </mxGeometry>
                </mxCell>
                <mxCell id="t8sNuPc-GYWIgQTRH9a9-2" value="" style="rounded=0;whiteSpace=wrap;html=1;sketch=1;hachureGap=4;fontFamily=Architects Daughter;fontSource=https%3A%2F%2Ffonts.googleapis.com%2Fcss%3Ffamily%3DArchitects%2BDaughter;fontSize=20;" parent="1" vertex="1">
                    <mxGeometry x="109" y="206" width="285" height="140" as="geometry"/>
                </mxCell>
                <mxCell id="t8sNuPc-GYWIgQTRH9a9-3" value="Stake" style="text;strokeColor=none;fillColor=none;html=1;align=center;verticalAlign=middle;whiteSpace=wrap;rounded=0;sketch=1;hachureGap=4;fontFamily=Architects Daughter;fontSource=https%3A%2F%2Ffonts.googleapis.com%2Fcss%3Ffamily%3DArchitects%2BDaughter;fontSize=20;" parent="1" vertex="1">
                    <mxGeometry x="112" y="23" width="60" height="30" as="geometry"/>
                </mxCell>
                <mxCell id="t8sNuPc-GYWIgQTRH9a9-4" value="123123123" style="rounded=0;whiteSpace=wrap;html=1;sketch=1;hachureGap=4;fontFamily=Architects Daughter;fontSource=https%3A%2F%2Ffonts.googleapis.com%2Fcss%3Ffamily%3DArchitects%2BDaughter;fontSize=20;" parent="1" vertex="1">
                    <mxGeometry x="123" y="124" width="170" height="30" as="geometry"/>
                </mxCell>
                <mxCell id="t8sNuPc-GYWIgQTRH9a9-5" value="Stake" style="text;strokeColor=none;fillColor=none;html=1;align=center;verticalAlign=middle;whiteSpace=wrap;rounded=0;sketch=1;hachureGap=4;fontFamily=Architects Daughter;fontSource=https%3A%2F%2Ffonts.googleapis.com%2Fcss%3Ffamily%3DArchitects%2BDaughter;fontSize=20;" parent="1" vertex="1">
                    <mxGeometry x="315" y="122" width="60" height="30" as="geometry"/>
                </mxCell>
                <mxCell id="t8sNuPc-GYWIgQTRH9a9-7" value="Datetime" style="rounded=0;whiteSpace=wrap;html=1;sketch=1;hachureGap=4;fontFamily=Architects Daughter;fontSource=https%3A%2F%2Ffonts.googleapis.com%2Fcss%3Ffamily%3DArchitects%2BDaughter;fontSize=20;" parent="1" vertex="1">
                    <mxGeometry x="123" y="220" width="122" height="47" as="geometry"/>
                </mxCell>
                <mxCell id="t8sNuPc-GYWIgQTRH9a9-8" value="Set staking period" style="text;strokeColor=none;fillColor=none;html=1;align=center;verticalAlign=middle;whiteSpace=wrap;rounded=0;sketch=1;hachureGap=4;fontFamily=Architects Daughter;fontSource=https%3A%2F%2Ffonts.googleapis.com%2Fcss%3Ffamily%3DArchitects%2BDaughter;fontSize=20;" parent="1" vertex="1">
                    <mxGeometry x="289.25" y="232" width="111.5" height="30" as="geometry"/>
                </mxCell>
                <mxCell id="t8sNuPc-GYWIgQTRH9a9-11" value="Extending your period make you eligible for the next staking rewards" style="text;strokeColor=none;fillColor=none;html=1;align=center;verticalAlign=middle;whiteSpace=wrap;rounded=0;sketch=1;hachureGap=4;fontFamily=Architects Daughter;fontSource=https%3A%2F%2Ffonts.googleapis.com%2Fcss%3Ffamily%3DArchitects%2BDaughter;fontSize=20;" parent="1" vertex="1">
                    <mxGeometry x="29" y="302" width="403" height="30" as="geometry"/>
                </mxCell>
                <mxCell id="t8sNuPc-GYWIgQTRH9a9-12" value="" style="rounded=0;whiteSpace=wrap;html=1;sketch=1;hachureGap=4;fontFamily=Architects Daughter;fontSource=https%3A%2F%2Ffonts.googleapis.com%2Fcss%3Ffamily%3DArchitects%2BDaughter;fontSize=20;" parent="1" vertex="1">
                    <mxGeometry x="112" y="376" width="280" height="220" as="geometry"/>
                </mxCell>
                <mxCell id="t8sNuPc-GYWIgQTRH9a9-13" value="Your balance" style="text;strokeColor=none;fillColor=none;html=1;align=center;verticalAlign=middle;whiteSpace=wrap;rounded=0;sketch=1;hachureGap=4;fontFamily=Architects Daughter;fontSource=https%3A%2F%2Ffonts.googleapis.com%2Fcss%3Ffamily%3DArchitects%2BDaughter;fontSize=20;" parent="1" vertex="1">
                    <mxGeometry x="117" y="403" width="134" height="30" as="geometry"/>
                </mxCell>
                <mxCell id="t8sNuPc-GYWIgQTRH9a9-14" value="" style="rounded=0;whiteSpace=wrap;html=1;sketch=1;hachureGap=4;fontFamily=Architects Daughter;fontSource=https%3A%2F%2Ffonts.googleapis.com%2Fcss%3Ffamily%3DArchitects%2BDaughter;fontSize=20;" parent="1" vertex="1">
                    <mxGeometry x="109" y="55" width="62" height="2" as="geometry"/>
                </mxCell>
                <mxCell id="t8sNuPc-GYWIgQTRH9a9-15" value="Unstake" style="text;strokeColor=none;fillColor=none;html=1;align=center;verticalAlign=middle;whiteSpace=wrap;rounded=0;sketch=1;hachureGap=4;fontFamily=Architects Daughter;fontSource=https%3A%2F%2Ffonts.googleapis.com%2Fcss%3Ffamily%3DArchitects%2BDaughter;fontSize=20;" parent="1" vertex="1">
                    <mxGeometry x="195.5" y="25" width="60" height="30" as="geometry"/>
                </mxCell>
                <mxCell id="t8sNuPc-GYWIgQTRH9a9-16" value="3 $WEAPON" style="text;strokeColor=none;fillColor=none;html=1;align=center;verticalAlign=middle;whiteSpace=wrap;rounded=0;sketch=1;hachureGap=4;fontFamily=Architects Daughter;fontSource=https%3A%2F%2Ffonts.googleapis.com%2Fcss%3Ffamily%3DArchitects%2BDaughter;fontSize=20;" parent="1" vertex="1">
                    <mxGeometry x="251" y="403" width="129" height="30" as="geometry"/>
                </mxCell>
                <mxCell id="t8sNuPc-GYWIgQTRH9a9-17" value="Total duration" style="text;strokeColor=none;fillColor=none;html=1;align=center;verticalAlign=middle;whiteSpace=wrap;rounded=0;sketch=1;hachureGap=4;fontFamily=Architects Daughter;fontSource=https%3A%2F%2Ffonts.googleapis.com%2Fcss%3Ffamily%3DArchitects%2BDaughter;fontSize=20;" parent="1" vertex="1">
                    <mxGeometry x="117" y="449" width="149" height="30" as="geometry"/>
                </mxCell>
                <mxCell id="t8sNuPc-GYWIgQTRH9a9-18" value="3 days, ..." style="text;strokeColor=none;fillColor=none;html=1;align=center;verticalAlign=middle;whiteSpace=wrap;rounded=0;sketch=1;hachureGap=4;fontFamily=Architects Daughter;fontSource=https%3A%2F%2Ffonts.googleapis.com%2Fcss%3Ffamily%3DArchitects%2BDaughter;fontSize=20;" parent="1" vertex="1">
                    <mxGeometry x="271" y="452" width="100.5" height="30" as="geometry"/>
                </mxCell>
                <mxCell id="t8sNuPc-GYWIgQTRH9a9-19" value="Logo" style="text;strokeColor=none;fillColor=none;html=1;align=center;verticalAlign=middle;whiteSpace=wrap;rounded=0;sketch=1;hachureGap=4;fontFamily=Architects Daughter;fontSource=https%3A%2F%2Ffonts.googleapis.com%2Fcss%3Ffamily%3DArchitects%2BDaughter;fontSize=20;" parent="1" vertex="1">
                    <mxGeometry x="109" y="-101" width="60" height="30" as="geometry"/>
                </mxCell>
                <mxCell id="t8sNuPc-GYWIgQTRH9a9-20" value="Your ETH rewards:" style="text;strokeColor=none;fillColor=none;html=1;align=center;verticalAlign=middle;whiteSpace=wrap;rounded=0;sketch=1;hachureGap=4;fontFamily=Architects Daughter;fontSource=https%3A%2F%2Ffonts.googleapis.com%2Fcss%3Ffamily%3DArchitects%2BDaughter;fontSize=20;fontStyle=1" parent="1" vertex="1">
                    <mxGeometry x="109" y="-43" width="182" height="30" as="geometry"/>
                </mxCell>
                <mxCell id="t8sNuPc-GYWIgQTRH9a9-21" value="3 ETH" style="text;strokeColor=none;fillColor=none;html=1;align=center;verticalAlign=middle;whiteSpace=wrap;rounded=0;sketch=1;hachureGap=4;fontFamily=Architects Daughter;fontSource=https%3A%2F%2Ffonts.googleapis.com%2Fcss%3Ffamily%3DArchitects%2BDaughter;fontSize=20;fontStyle=1" parent="1" vertex="1">
                    <mxGeometry x="329" y="-43" width="60" height="30" as="geometry"/>
                </mxCell>
                <mxCell id="t8sNuPc-GYWIgQTRH9a9-23" value="Claim" style="text;strokeColor=none;fillColor=none;html=1;align=center;verticalAlign=middle;whiteSpace=wrap;rounded=0;sketch=1;hachureGap=4;fontFamily=Architects Daughter;fontSource=https%3A%2F%2Ffonts.googleapis.com%2Fcss%3Ffamily%3DArchitects%2BDaughter;fontSize=20;" parent="1" vertex="1">
                    <mxGeometry x="279" y="25" width="60" height="30" as="geometry"/>
                </mxCell>
                <mxCell id="t8sNuPc-GYWIgQTRH9a9-24" value="" style="rounded=0;whiteSpace=wrap;html=1;sketch=1;hachureGap=4;fontFamily=Architects Daughter;fontSource=https%3A%2F%2Ffonts.googleapis.com%2Fcss%3Ffamily%3DArchitects%2BDaughter;fontSize=20;" parent="1" vertex="1">
                    <mxGeometry x="638" y="-101" width="314" height="169" as="geometry"/>
                </mxCell>
                <mxCell id="t8sNuPc-GYWIgQTRH9a9-25" value="Stake" style="text;strokeColor=none;fillColor=none;html=1;align=center;verticalAlign=middle;whiteSpace=wrap;rounded=0;sketch=1;hachureGap=4;fontFamily=Architects Daughter;fontSource=https%3A%2F%2Ffonts.googleapis.com%2Fcss%3Ffamily%3DArchitects%2BDaughter;fontSize=20;" parent="1" vertex="1">
                    <mxGeometry x="655" y="25" width="60" height="30" as="geometry"/>
                </mxCell>
                <mxCell id="t8sNuPc-GYWIgQTRH9a9-26" value="" style="rounded=0;whiteSpace=wrap;html=1;sketch=1;hachureGap=4;fontFamily=Architects Daughter;fontSource=https%3A%2F%2Ffonts.googleapis.com%2Fcss%3Ffamily%3DArchitects%2BDaughter;fontSize=20;" parent="1" vertex="1">
                    <mxGeometry x="824" y="57" width="62" height="2" as="geometry"/>
                </mxCell>
                <mxCell id="t8sNuPc-GYWIgQTRH9a9-27" value="Unstake" style="text;strokeColor=none;fillColor=none;html=1;align=center;verticalAlign=middle;whiteSpace=wrap;rounded=0;sketch=1;hachureGap=4;fontFamily=Architects Daughter;fontSource=https%3A%2F%2Ffonts.googleapis.com%2Fcss%3Ffamily%3DArchitects%2BDaughter;fontSize=20;" parent="1" vertex="1">
                    <mxGeometry x="738.5" y="27" width="60" height="30" as="geometry"/>
                </mxCell>
                <mxCell id="t8sNuPc-GYWIgQTRH9a9-28" value="Logo" style="text;strokeColor=none;fillColor=none;html=1;align=center;verticalAlign=middle;whiteSpace=wrap;rounded=0;sketch=1;hachureGap=4;fontFamily=Architects Daughter;fontSource=https%3A%2F%2Ffonts.googleapis.com%2Fcss%3Ffamily%3DArchitects%2BDaughter;fontSize=20;" parent="1" vertex="1">
                    <mxGeometry x="652" y="-99" width="60" height="30" as="geometry"/>
                </mxCell>
                <mxCell id="t8sNuPc-GYWIgQTRH9a9-29" value="Your ETH rewards:" style="text;strokeColor=none;fillColor=none;html=1;align=center;verticalAlign=middle;whiteSpace=wrap;rounded=0;sketch=1;hachureGap=4;fontFamily=Architects Daughter;fontSource=https%3A%2F%2Ffonts.googleapis.com%2Fcss%3Ffamily%3DArchitects%2BDaughter;fontSize=20;fontStyle=1" parent="1" vertex="1">
                    <mxGeometry x="652" y="-41" width="182" height="30" as="geometry"/>
                </mxCell>
                <mxCell id="t8sNuPc-GYWIgQTRH9a9-30" value="3 ETH" style="text;strokeColor=none;fillColor=none;html=1;align=center;verticalAlign=middle;whiteSpace=wrap;rounded=0;sketch=1;hachureGap=4;fontFamily=Architects Daughter;fontSource=https%3A%2F%2Ffonts.googleapis.com%2Fcss%3Ffamily%3DArchitects%2BDaughter;fontSize=20;fontStyle=1" parent="1" vertex="1">
                    <mxGeometry x="872" y="-41" width="60" height="30" as="geometry"/>
                </mxCell>
                <mxCell id="t8sNuPc-GYWIgQTRH9a9-31" value="Claim" style="text;strokeColor=none;fillColor=none;html=1;align=center;verticalAlign=middle;whiteSpace=wrap;rounded=0;sketch=1;hachureGap=4;fontFamily=Architects Daughter;fontSource=https%3A%2F%2Ffonts.googleapis.com%2Fcss%3Ffamily%3DArchitects%2BDaughter;fontSize=20;" parent="1" vertex="1">
                    <mxGeometry x="822" y="27" width="60" height="30" as="geometry"/>
                </mxCell>
                <mxCell id="t8sNuPc-GYWIgQTRH9a9-33" value="" style="rounded=0;whiteSpace=wrap;html=1;sketch=1;hachureGap=4;fontFamily=Architects Daughter;fontSource=https%3A%2F%2Ffonts.googleapis.com%2Fcss%3Ffamily%3DArchitects%2BDaughter;fontSize=20;" parent="1" vertex="1">
                    <mxGeometry x="606.5" y="243" width="381" height="49" as="geometry"/>
                </mxCell>
                <mxCell id="t8sNuPc-GYWIgQTRH9a9-34" value="x" style="rounded=0;whiteSpace=wrap;html=1;sketch=1;hachureGap=4;fontFamily=Architects Daughter;fontSource=https%3A%2F%2Ffonts.googleapis.com%2Fcss%3Ffamily%3DArchitects%2BDaughter;fontSize=20;" parent="1" vertex="1">
                    <mxGeometry x="607" y="206" width="36.5" height="31" as="geometry"/>
                </mxCell>
                <mxCell id="t8sNuPc-GYWIgQTRH9a9-35" value="select all claimable weeks" style="text;strokeColor=none;fillColor=none;html=1;align=center;verticalAlign=middle;whiteSpace=wrap;rounded=0;sketch=1;hachureGap=4;fontFamily=Architects Daughter;fontSource=https%3A%2F%2Ffonts.googleapis.com%2Fcss%3Ffamily%3DArchitects%2BDaughter;fontSize=20;" parent="1" vertex="1">
                    <mxGeometry x="643.5" y="206" width="250" height="30" as="geometry"/>
                </mxCell>
                <mxCell id="t8sNuPc-GYWIgQTRH9a9-36" value="x" style="rounded=0;whiteSpace=wrap;html=1;sketch=1;hachureGap=4;fontFamily=Architects Daughter;fontSource=https%3A%2F%2Ffonts.googleapis.com%2Fcss%3Ffamily%3DArchitects%2BDaughter;fontSize=20;" parent="1" vertex="1">
                    <mxGeometry x="613.5" y="256" width="29" height="26" as="geometry"/>
                </mxCell>
                <mxCell id="t8sNuPc-GYWIgQTRH9a9-37" value="Week #52" style="text;strokeColor=none;fillColor=none;html=1;align=center;verticalAlign=middle;whiteSpace=wrap;rounded=0;sketch=1;hachureGap=4;fontFamily=Architects Daughter;fontSource=https%3A%2F%2Ffonts.googleapis.com%2Fcss%3Ffamily%3DArchitects%2BDaughter;fontSize=20;" parent="1" vertex="1">
                    <mxGeometry x="647" y="254" width="113.5" height="30" as="geometry"/>
                </mxCell>
                <mxCell id="t8sNuPc-GYWIgQTRH9a9-39" value="3 ETH" style="ellipse;whiteSpace=wrap;html=1;sketch=1;hachureGap=4;fontFamily=Architects Daughter;fontSource=https%3A%2F%2Ffonts.googleapis.com%2Fcss%3Ffamily%3DArchitects%2BDaughter;fontSize=20;" parent="1" vertex="1">
                    <mxGeometry x="869" y="254" width="113" height="33" as="geometry"/>
                </mxCell>
                <mxCell id="t8sNuPc-GYWIgQTRH9a9-41" value="" style="rounded=0;whiteSpace=wrap;html=1;sketch=1;hachureGap=4;fontFamily=Architects Daughter;fontSource=https%3A%2F%2Ffonts.googleapis.com%2Fcss%3Ffamily%3DArchitects%2BDaughter;fontSize=20;" parent="1" vertex="1">
                    <mxGeometry x="606.5" y="304" width="381" height="49" as="geometry"/>
                </mxCell>
                <mxCell id="t8sNuPc-GYWIgQTRH9a9-42" value="" style="rounded=0;whiteSpace=wrap;html=1;sketch=1;hachureGap=4;fontFamily=Architects Daughter;fontSource=https%3A%2F%2Ffonts.googleapis.com%2Fcss%3Ffamily%3DArchitects%2BDaughter;fontSize=20;" parent="1" vertex="1">
                    <mxGeometry x="613.5" y="317" width="29" height="26" as="geometry"/>
                </mxCell>
                <mxCell id="t8sNuPc-GYWIgQTRH9a9-43" value="Week #51" style="text;strokeColor=none;fillColor=none;html=1;align=center;verticalAlign=middle;whiteSpace=wrap;rounded=0;sketch=1;hachureGap=4;fontFamily=Architects Daughter;fontSource=https%3A%2F%2Ffonts.googleapis.com%2Fcss%3Ffamily%3DArchitects%2BDaughter;fontSize=20;" parent="1" vertex="1">
                    <mxGeometry x="647" y="315" width="113.5" height="30" as="geometry"/>
                </mxCell>
                <mxCell id="t8sNuPc-GYWIgQTRH9a9-44" value="3 ETH" style="ellipse;whiteSpace=wrap;html=1;sketch=1;hachureGap=4;fontFamily=Architects Daughter;fontSource=https%3A%2F%2Ffonts.googleapis.com%2Fcss%3Ffamily%3DArchitects%2BDaughter;fontSize=20;" parent="1" vertex="1">
                    <mxGeometry x="873" y="312" width="113" height="33" as="geometry"/>
                </mxCell>
                <mxCell id="t8sNuPc-GYWIgQTRH9a9-46" value="" style="rounded=0;whiteSpace=wrap;html=1;sketch=1;hachureGap=4;fontFamily=Architects Daughter;fontSource=https%3A%2F%2Ffonts.googleapis.com%2Fcss%3Ffamily%3DArchitects%2BDaughter;fontSize=20;" parent="1" vertex="1">
                    <mxGeometry x="604.5" y="363" width="381" height="49" as="geometry"/>
                </mxCell>
                <mxCell id="t8sNuPc-GYWIgQTRH9a9-47" value="x" style="rounded=0;whiteSpace=wrap;html=1;sketch=1;hachureGap=4;fontFamily=Architects Daughter;fontSource=https%3A%2F%2Ffonts.googleapis.com%2Fcss%3Ffamily%3DArchitects%2BDaughter;fontSize=20;" parent="1" vertex="1">
                    <mxGeometry x="611.5" y="376" width="29" height="26" as="geometry"/>
                </mxCell>
                <mxCell id="t8sNuPc-GYWIgQTRH9a9-48" value="Week #50" style="text;strokeColor=none;fillColor=none;html=1;align=center;verticalAlign=middle;whiteSpace=wrap;rounded=0;sketch=1;hachureGap=4;fontFamily=Architects Daughter;fontSource=https%3A%2F%2Ffonts.googleapis.com%2Fcss%3Ffamily%3DArchitects%2BDaughter;fontSize=20;" parent="1" vertex="1">
                    <mxGeometry x="645" y="374" width="113.5" height="30" as="geometry"/>
                </mxCell>
                <mxCell id="t8sNuPc-GYWIgQTRH9a9-49" value="3 ETH" style="ellipse;whiteSpace=wrap;html=1;sketch=1;hachureGap=4;fontFamily=Architects Daughter;fontSource=https%3A%2F%2Ffonts.googleapis.com%2Fcss%3Ffamily%3DArchitects%2BDaughter;fontSize=20;" parent="1" vertex="1">
                    <mxGeometry x="872.5" y="371" width="113" height="33" as="geometry"/>
                </mxCell>
                <mxCell id="t8sNuPc-GYWIgQTRH9a9-51" value="Claim all eligible" style="rounded=0;whiteSpace=wrap;html=1;sketch=1;hachureGap=4;fontFamily=Architects Daughter;fontSource=https%3A%2F%2Ffonts.googleapis.com%2Fcss%3Ffamily%3DArchitects%2BDaughter;fontSize=20;" parent="1" vertex="1">
                    <mxGeometry x="689.5" y="109" width="213" height="47" as="geometry"/>
                </mxCell>
                <mxCell id="t8sNuPc-GYWIgQTRH9a9-52" value="Claim selected" style="rounded=0;whiteSpace=wrap;html=1;sketch=1;hachureGap=4;fontFamily=Architects Daughter;fontSource=https%3A%2F%2Ffonts.googleapis.com%2Fcss%3Ffamily%3DArchitects%2BDaughter;fontSize=20;" parent="1" vertex="1">
                    <mxGeometry x="676" y="666" width="213" height="47" as="geometry"/>
                </mxCell>
                <mxCell id="t8sNuPc-GYWIgQTRH9a9-53" value="" style="rounded=0;whiteSpace=wrap;html=1;sketch=1;hachureGap=4;fontFamily=Architects Daughter;fontSource=https%3A%2F%2Ffonts.googleapis.com%2Fcss%3Ffamily%3DArchitects%2BDaughter;fontSize=20;" parent="1" vertex="1">
                    <mxGeometry x="605.5" y="424" width="381" height="49" as="geometry"/>
                </mxCell>
                <mxCell id="t8sNuPc-GYWIgQTRH9a9-54" value="x" style="rounded=0;whiteSpace=wrap;html=1;sketch=1;hachureGap=4;fontFamily=Architects Daughter;fontSource=https%3A%2F%2Ffonts.googleapis.com%2Fcss%3Ffamily%3DArchitects%2BDaughter;fontSize=20;" parent="1" vertex="1">
                    <mxGeometry x="612.5" y="437" width="29" height="26" as="geometry"/>
                </mxCell>
                <mxCell id="t8sNuPc-GYWIgQTRH9a9-55" value="Week #44" style="text;strokeColor=none;fillColor=none;html=1;align=center;verticalAlign=middle;whiteSpace=wrap;rounded=0;sketch=1;hachureGap=4;fontFamily=Architects Daughter;fontSource=https%3A%2F%2Ffonts.googleapis.com%2Fcss%3Ffamily%3DArchitects%2BDaughter;fontSize=20;" parent="1" vertex="1">
                    <mxGeometry x="646" y="435" width="113.5" height="30" as="geometry"/>
                </mxCell>
                <mxCell id="t8sNuPc-GYWIgQTRH9a9-56" value="3 ETH" style="ellipse;whiteSpace=wrap;html=1;sketch=1;hachureGap=4;fontFamily=Architects Daughter;fontSource=https%3A%2F%2Ffonts.googleapis.com%2Fcss%3Ffamily%3DArchitects%2BDaughter;fontSize=20;" parent="1" vertex="1">
                    <mxGeometry x="868" y="435" width="113" height="33" as="geometry"/>
                </mxCell>
                <mxCell id="t8sNuPc-GYWIgQTRH9a9-57" value="" style="rounded=0;whiteSpace=wrap;html=1;sketch=1;hachureGap=4;fontFamily=Architects Daughter;fontSource=https%3A%2F%2Ffonts.googleapis.com%2Fcss%3Ffamily%3DArchitects%2BDaughter;fontSize=20;" parent="1" vertex="1">
                    <mxGeometry x="605.5" y="485" width="381" height="49" as="geometry"/>
                </mxCell>
                <mxCell id="t8sNuPc-GYWIgQTRH9a9-58" value="" style="rounded=0;whiteSpace=wrap;html=1;sketch=1;hachureGap=4;fontFamily=Architects Daughter;fontSource=https%3A%2F%2Ffonts.googleapis.com%2Fcss%3Ffamily%3DArchitects%2BDaughter;fontSize=20;" parent="1" vertex="1">
                    <mxGeometry x="612.5" y="498" width="29" height="26" as="geometry"/>
                </mxCell>
                <mxCell id="t8sNuPc-GYWIgQTRH9a9-59" value="Week #44" style="text;strokeColor=none;fillColor=none;html=1;align=center;verticalAlign=middle;whiteSpace=wrap;rounded=0;sketch=1;hachureGap=4;fontFamily=Architects Daughter;fontSource=https%3A%2F%2Ffonts.googleapis.com%2Fcss%3Ffamily%3DArchitects%2BDaughter;fontSize=20;" parent="1" vertex="1">
                    <mxGeometry x="646" y="496" width="113.5" height="30" as="geometry"/>
                </mxCell>
                <mxCell id="t8sNuPc-GYWIgQTRH9a9-60" value="3 ETH" style="ellipse;whiteSpace=wrap;html=1;sketch=1;hachureGap=4;fontFamily=Architects Daughter;fontSource=https%3A%2F%2Ffonts.googleapis.com%2Fcss%3Ffamily%3DArchitects%2BDaughter;fontSize=20;" parent="1" vertex="1">
                    <mxGeometry x="872" y="493" width="113" height="33" as="geometry"/>
                </mxCell>
                <mxCell id="t8sNuPc-GYWIgQTRH9a9-61" value="" style="rounded=0;whiteSpace=wrap;html=1;sketch=1;hachureGap=4;fontFamily=Architects Daughter;fontSource=https%3A%2F%2Ffonts.googleapis.com%2Fcss%3Ffamily%3DArchitects%2BDaughter;fontSize=20;" parent="1" vertex="1">
                    <mxGeometry x="603.5" y="544" width="381" height="49" as="geometry"/>
                </mxCell>
                <mxCell id="t8sNuPc-GYWIgQTRH9a9-62" value="x" style="rounded=0;whiteSpace=wrap;html=1;sketch=1;hachureGap=4;fontFamily=Architects Daughter;fontSource=https%3A%2F%2Ffonts.googleapis.com%2Fcss%3Ffamily%3DArchitects%2BDaughter;fontSize=20;" parent="1" vertex="1">
                    <mxGeometry x="610.5" y="557" width="29" height="26" as="geometry"/>
                </mxCell>
                <mxCell id="t8sNuPc-GYWIgQTRH9a9-63" value="Week #44" style="text;strokeColor=none;fillColor=none;html=1;align=center;verticalAlign=middle;whiteSpace=wrap;rounded=0;sketch=1;hachureGap=4;fontFamily=Architects Daughter;fontSource=https%3A%2F%2Ffonts.googleapis.com%2Fcss%3Ffamily%3DArchitects%2BDaughter;fontSize=20;" parent="1" vertex="1">
                    <mxGeometry x="644" y="555" width="113.5" height="30" as="geometry"/>
                </mxCell>
                <mxCell id="t8sNuPc-GYWIgQTRH9a9-64" value="3 ETH" style="ellipse;whiteSpace=wrap;html=1;sketch=1;hachureGap=4;fontFamily=Architects Daughter;fontSource=https%3A%2F%2Ffonts.googleapis.com%2Fcss%3Ffamily%3DArchitects%2BDaughter;fontSize=20;" parent="1" vertex="1">
                    <mxGeometry x="871.5" y="552" width="113" height="33" as="geometry"/>
                </mxCell>
                <mxCell id="t8sNuPc-GYWIgQTRH9a9-65" value="" style="rounded=0;whiteSpace=wrap;html=1;sketch=1;hachureGap=4;fontFamily=Architects Daughter;fontSource=https%3A%2F%2Ffonts.googleapis.com%2Fcss%3Ffamily%3DArchitects%2BDaughter;fontSize=20;" parent="1" vertex="1">
                    <mxGeometry x="72" y="727" width="314" height="169" as="geometry"/>
                </mxCell>
                <mxCell id="t8sNuPc-GYWIgQTRH9a9-66" value="" style="rounded=0;whiteSpace=wrap;html=1;sketch=1;hachureGap=4;fontFamily=Architects Daughter;fontSource=https%3A%2F%2Ffonts.googleapis.com%2Fcss%3Ffamily%3DArchitects%2BDaughter;fontSize=20;" parent="1" vertex="1">
                    <mxGeometry x="228" y="952" width="75" height="34" as="geometry"/>
                </mxCell>
                <mxCell id="t8sNuPc-GYWIgQTRH9a9-67" value="" style="rounded=0;whiteSpace=wrap;html=1;sketch=1;hachureGap=4;fontFamily=Architects Daughter;fontSource=https%3A%2F%2Ffonts.googleapis.com%2Fcss%3Ffamily%3DArchitects%2BDaughter;fontSize=20;" parent="1" vertex="1">
                    <mxGeometry x="86" y="929" width="286" height="81" as="geometry"/>
                </mxCell>
                <mxCell id="t8sNuPc-GYWIgQTRH9a9-70" value="Stake" style="text;strokeColor=none;fillColor=none;html=1;align=center;verticalAlign=middle;whiteSpace=wrap;rounded=0;sketch=1;hachureGap=4;fontFamily=Architects Daughter;fontSource=https%3A%2F%2Ffonts.googleapis.com%2Fcss%3Ffamily%3DArchitects%2BDaughter;fontSize=20;" parent="1" vertex="1">
                    <mxGeometry x="89" y="853" width="60" height="30" as="geometry"/>
                </mxCell>
                <mxCell id="t8sNuPc-GYWIgQTRH9a9-71" value="&amp;nbsp;123123123" style="rounded=0;whiteSpace=wrap;html=1;sketch=1;hachureGap=4;fontFamily=Architects Daughter;fontSource=https%3A%2F%2Ffonts.googleapis.com%2Fcss%3Ffamily%3DArchitects%2BDaughter;fontSize=20;align=left;" parent="1" vertex="1">
                    <mxGeometry x="100" y="954" width="173" height="40" as="geometry"/>
                </mxCell>
                <mxCell id="t8sNuPc-GYWIgQTRH9a9-72" value="Unstake" style="text;strokeColor=none;fillColor=none;html=1;align=center;verticalAlign=middle;whiteSpace=wrap;rounded=0;sketch=1;hachureGap=4;fontFamily=Architects Daughter;fontSource=https%3A%2F%2Ffonts.googleapis.com%2Fcss%3Ffamily%3DArchitects%2BDaughter;fontSize=20;" parent="1" vertex="1">
                    <mxGeometry x="293" y="959" width="60" height="30" as="geometry"/>
                </mxCell>
                <mxCell id="t8sNuPc-GYWIgQTRH9a9-76" value="" style="rounded=0;whiteSpace=wrap;html=1;sketch=1;hachureGap=4;fontFamily=Architects Daughter;fontSource=https%3A%2F%2Ffonts.googleapis.com%2Fcss%3Ffamily%3DArchitects%2BDaughter;fontSize=20;" parent="1" vertex="1">
                    <mxGeometry x="89" y="1053" width="280" height="220" as="geometry"/>
                </mxCell>
                <mxCell id="t8sNuPc-GYWIgQTRH9a9-77" value="Your staked balance" style="text;strokeColor=none;fillColor=none;html=1;align=center;verticalAlign=middle;whiteSpace=wrap;rounded=0;sketch=1;hachureGap=4;fontFamily=Architects Daughter;fontSource=https%3A%2F%2Ffonts.googleapis.com%2Fcss%3Ffamily%3DArchitects%2BDaughter;fontSize=20;" parent="1" vertex="1">
                    <mxGeometry x="94" y="1080" width="134" height="30" as="geometry"/>
                </mxCell>
                <mxCell id="t8sNuPc-GYWIgQTRH9a9-78" value="" style="rounded=0;whiteSpace=wrap;html=1;sketch=1;hachureGap=4;fontFamily=Architects Daughter;fontSource=https%3A%2F%2Ffonts.googleapis.com%2Fcss%3Ffamily%3DArchitects%2BDaughter;fontSize=20;" parent="1" vertex="1">
                    <mxGeometry x="170.5" y="885" width="62" height="1" as="geometry"/>
                </mxCell>
                <mxCell id="t8sNuPc-GYWIgQTRH9a9-79" value="Unstake" style="text;strokeColor=none;fillColor=none;html=1;align=center;verticalAlign=middle;whiteSpace=wrap;rounded=0;sketch=1;hachureGap=4;fontFamily=Architects Daughter;fontSource=https%3A%2F%2Ffonts.googleapis.com%2Fcss%3Ffamily%3DArchitects%2BDaughter;fontSize=20;" parent="1" vertex="1">
                    <mxGeometry x="172.5" y="855" width="60" height="30" as="geometry"/>
                </mxCell>
                <mxCell id="t8sNuPc-GYWIgQTRH9a9-80" value="3 $sWEAPON" style="text;strokeColor=none;fillColor=none;html=1;align=center;verticalAlign=middle;whiteSpace=wrap;rounded=0;sketch=1;hachureGap=4;fontFamily=Architects Daughter;fontSource=https%3A%2F%2Ffonts.googleapis.com%2Fcss%3Ffamily%3DArchitects%2BDaughter;fontSize=20;" parent="1" vertex="1">
                    <mxGeometry x="228" y="1080" width="129" height="30" as="geometry"/>
                </mxCell>
                <mxCell id="t8sNuPc-GYWIgQTRH9a9-81" value="Total duration" style="text;strokeColor=none;fillColor=none;html=1;align=center;verticalAlign=middle;whiteSpace=wrap;rounded=0;sketch=1;hachureGap=4;fontFamily=Architects Daughter;fontSource=https%3A%2F%2Ffonts.googleapis.com%2Fcss%3Ffamily%3DArchitects%2BDaughter;fontSize=20;" parent="1" vertex="1">
                    <mxGeometry x="94" y="1126" width="149" height="30" as="geometry"/>
                </mxCell>
                <mxCell id="t8sNuPc-GYWIgQTRH9a9-82" value="3 days, ..." style="text;strokeColor=none;fillColor=none;html=1;align=center;verticalAlign=middle;whiteSpace=wrap;rounded=0;sketch=1;hachureGap=4;fontFamily=Architects Daughter;fontSource=https%3A%2F%2Ffonts.googleapis.com%2Fcss%3Ffamily%3DArchitects%2BDaughter;fontSize=20;" parent="1" vertex="1">
                    <mxGeometry x="248" y="1129" width="100.5" height="30" as="geometry"/>
                </mxCell>
                <mxCell id="t8sNuPc-GYWIgQTRH9a9-83" value="Logo" style="text;strokeColor=none;fillColor=none;html=1;align=center;verticalAlign=middle;whiteSpace=wrap;rounded=0;sketch=1;hachureGap=4;fontFamily=Architects Daughter;fontSource=https%3A%2F%2Ffonts.googleapis.com%2Fcss%3Ffamily%3DArchitects%2BDaughter;fontSize=20;" parent="1" vertex="1">
                    <mxGeometry x="86" y="729" width="60" height="30" as="geometry"/>
                </mxCell>
                <mxCell id="t8sNuPc-GYWIgQTRH9a9-84" value="Your ETH rewards:" style="text;strokeColor=none;fillColor=none;html=1;align=center;verticalAlign=middle;whiteSpace=wrap;rounded=0;sketch=1;hachureGap=4;fontFamily=Architects Daughter;fontSource=https%3A%2F%2Ffonts.googleapis.com%2Fcss%3Ffamily%3DArchitects%2BDaughter;fontSize=20;fontStyle=1" parent="1" vertex="1">
                    <mxGeometry x="86" y="787" width="182" height="30" as="geometry"/>
                </mxCell>
                <mxCell id="t8sNuPc-GYWIgQTRH9a9-85" value="3 ETH" style="text;strokeColor=none;fillColor=none;html=1;align=center;verticalAlign=middle;whiteSpace=wrap;rounded=0;sketch=1;hachureGap=4;fontFamily=Architects Daughter;fontSource=https%3A%2F%2Ffonts.googleapis.com%2Fcss%3Ffamily%3DArchitects%2BDaughter;fontSize=20;fontStyle=1" parent="1" vertex="1">
                    <mxGeometry x="306" y="787" width="60" height="30" as="geometry"/>
                </mxCell>
                <mxCell id="t8sNuPc-GYWIgQTRH9a9-86" value="Claim" style="text;strokeColor=none;fillColor=none;html=1;align=center;verticalAlign=middle;whiteSpace=wrap;rounded=0;sketch=1;hachureGap=4;fontFamily=Architects Daughter;fontSource=https%3A%2F%2Ffonts.googleapis.com%2Fcss%3Ffamily%3DArchitects%2BDaughter;fontSize=20;" parent="1" vertex="1">
                    <mxGeometry x="256" y="855" width="60" height="30" as="geometry"/>
                </mxCell>
                <mxCell id="t8sNuPc-GYWIgQTRH9a9-87" value="Show more weeks" style="text;strokeColor=none;fillColor=none;html=1;align=center;verticalAlign=middle;whiteSpace=wrap;rounded=0;sketch=1;hachureGap=4;fontFamily=Architects Daughter;fontSource=https%3A%2F%2Ffonts.googleapis.com%2Fcss%3Ffamily%3DArchitects%2BDaughter;fontSize=20;" parent="1" vertex="1">
                    <mxGeometry x="687" y="600" width="199" height="30" as="geometry"/>
                </mxCell>
                <mxCell id="t8sNuPc-GYWIgQTRH9a9-88" value="Max" style="text;strokeColor=none;fillColor=none;html=1;align=center;verticalAlign=middle;whiteSpace=wrap;rounded=0;sketch=1;hachureGap=4;fontFamily=Architects Daughter;fontSource=https%3A%2F%2Ffonts.googleapis.com%2Fcss%3Ffamily%3DArchitects%2BDaughter;fontSize=20;" parent="1" vertex="1">
                    <mxGeometry x="211" y="959" width="60" height="30" as="geometry"/>
                </mxCell>
                <mxCell id="t8sNuPc-GYWIgQTRH9a9-89" value="" style="edgeStyle=none;orthogonalLoop=1;jettySize=auto;html=1;shape=flexArrow;rounded=1;startSize=8;endSize=8;sketch=1;hachureGap=4;fontFamily=Architects Daughter;fontSource=https%3A%2F%2Ffonts.googleapis.com%2Fcss%3Ffamily%3DArchitects%2BDaughter;fontSize=16;endArrow=open;sourcePerimeterSpacing=8;targetPerimeterSpacing=8;curved=1;" parent="1" edge="1">
                    <mxGeometry width="140" relative="1" as="geometry">
                        <mxPoint x="421" y="975" as="sourcePoint"/>
                        <mxPoint x="579" y="991" as="targetPoint"/>
                        <Array as="points"/>
                    </mxGeometry>
                </mxCell>
                <mxCell id="t8sNuPc-GYWIgQTRH9a9-90" value="" style="rounded=0;whiteSpace=wrap;html=1;sketch=1;hachureGap=4;fontFamily=Architects Daughter;fontSource=https%3A%2F%2Ffonts.googleapis.com%2Fcss%3Ffamily%3DArchitects%2BDaughter;fontSize=20;" parent="1" vertex="1">
                    <mxGeometry x="623.75" y="874" width="408.25" height="330" as="geometry"/>
                </mxCell>
                <mxCell id="t8sNuPc-GYWIgQTRH9a9-91" value="&lt;font style=&quot;font-size: 30px&quot;&gt;&lt;b&gt;Caution!&lt;/b&gt;&lt;/font&gt;" style="text;strokeColor=none;fillColor=none;html=1;align=left;verticalAlign=middle;whiteSpace=wrap;rounded=0;sketch=1;hachureGap=4;fontFamily=Architects Daughter;fontSource=https%3A%2F%2Ffonts.googleapis.com%2Fcss%3Ffamily%3DArchitects%2BDaughter;fontSize=20;" parent="1" vertex="1">
                    <mxGeometry x="641.5" y="899" width="173" height="30" as="geometry"/>
                </mxCell>
                <mxCell id="t8sNuPc-GYWIgQTRH9a9-92" value="You're about to lose money. Claim your ETH rewards before you unstake." style="text;strokeColor=none;fillColor=none;html=1;align=left;verticalAlign=middle;whiteSpace=wrap;rounded=0;sketch=1;hachureGap=4;fontFamily=Architects Daughter;fontSource=https%3A%2F%2Ffonts.googleapis.com%2Fcss%3Ffamily%3DArchitects%2BDaughter;fontSize=30;" parent="1" vertex="1">
                    <mxGeometry x="646" y="1008" width="333" height="30" as="geometry"/>
                </mxCell>
                <mxCell id="t8sNuPc-GYWIgQTRH9a9-93" value="Close" style="text;strokeColor=none;fillColor=none;html=1;align=center;verticalAlign=middle;whiteSpace=wrap;rounded=0;sketch=1;hachureGap=4;fontFamily=Architects Daughter;fontSource=https%3A%2F%2Ffonts.googleapis.com%2Fcss%3Ffamily%3DArchitects%2BDaughter;fontSize=30;" parent="1" vertex="1">
                    <mxGeometry x="817" y="1148" width="60" height="30" as="geometry"/>
                </mxCell>
                <mxCell id="t8sNuPc-GYWIgQTRH9a9-95" value="Claim" style="text;strokeColor=none;fillColor=none;html=1;align=center;verticalAlign=middle;whiteSpace=wrap;rounded=0;sketch=1;hachureGap=4;fontFamily=Architects Daughter;fontSource=https%3A%2F%2Ffonts.googleapis.com%2Fcss%3Ffamily%3DArchitects%2BDaughter;fontSize=30;" parent="1" vertex="1">
                    <mxGeometry x="919" y="1150" width="60" height="30" as="geometry"/>
                </mxCell>
                <mxCell id="t8sNuPc-GYWIgQTRH9a9-96" value="" style="edgeStyle=none;orthogonalLoop=1;jettySize=auto;html=1;rounded=0;sketch=1;hachureGap=4;fontFamily=Architects Daughter;fontSource=https%3A%2F%2Ffonts.googleapis.com%2Fcss%3Ffamily%3DArchitects%2BDaughter;fontSize=30;endArrow=open;startSize=14;endSize=14;sourcePerimeterSpacing=8;targetPerimeterSpacing=8;curved=1;exitX=0.5;exitY=1;exitDx=0;exitDy=0;" parent="1" source="t8sNuPc-GYWIgQTRH9a9-95" target="t8sNuPc-GYWIgQTRH9a9-97" edge="1">
                    <mxGeometry width="120" relative="1" as="geometry">
                        <mxPoint x="898" y="1228" as="sourcePoint"/>
                        <mxPoint x="898" y="1287" as="targetPoint"/>
                        <Array as="points"/>
                    </mxGeometry>
                </mxCell>
                <mxCell id="t8sNuPc-GYWIgQTRH9a9-97" value="*goes to claim tab*" style="text;strokeColor=none;fillColor=none;html=1;align=center;verticalAlign=middle;whiteSpace=wrap;rounded=0;sketch=1;hachureGap=4;fontFamily=Architects Daughter;fontSource=https%3A%2F%2Ffonts.googleapis.com%2Fcss%3Ffamily%3DArchitects%2BDaughter;fontSize=30;" parent="1" vertex="1">
                    <mxGeometry x="868" y="1275" width="169" height="30" as="geometry"/>
                </mxCell>
                <mxCell id="t8sNuPc-GYWIgQTRH9a9-99" value="" style="edgeStyle=none;orthogonalLoop=1;jettySize=auto;html=1;shape=flexArrow;rounded=1;startSize=8;endSize=8;sketch=1;hachureGap=4;fontFamily=Architects Daughter;fontSource=https%3A%2F%2Ffonts.googleapis.com%2Fcss%3Ffamily%3DArchitects%2BDaughter;fontSize=30;endArrow=open;sourcePerimeterSpacing=8;targetPerimeterSpacing=8;curved=1;" parent="1" edge="1">
                    <mxGeometry width="140" relative="1" as="geometry">
                        <mxPoint x="415" y="161" as="sourcePoint"/>
                        <mxPoint x="618" y="848" as="targetPoint"/>
                        <Array as="points"/>
                    </mxGeometry>
                </mxCell>
                <mxCell id="t8sNuPc-GYWIgQTRH9a9-102" value="&lt;font style=&quot;font-size: 15px&quot;&gt;Connect wallet&lt;/font&gt;" style="ellipse;whiteSpace=wrap;html=1;sketch=1;hachureGap=4;fontFamily=Architects Daughter;fontSource=https%3A%2F%2Ffonts.googleapis.com%2Fcss%3Ffamily%3DArchitects%2BDaughter;fontSize=30;" parent="1" vertex="1">
                    <mxGeometry x="268" y="-95" width="130" height="34" as="geometry"/>
                </mxCell>
                <mxCell id="t8sNuPc-GYWIgQTRH9a9-103" value="METIS supported!" style="text;strokeColor=none;fillColor=none;html=1;align=center;verticalAlign=middle;whiteSpace=wrap;rounded=0;sketch=1;hachureGap=4;fontFamily=Architects Daughter;fontSource=https%3A%2F%2Ffonts.googleapis.com%2Fcss%3Ffamily%3DArchitects%2BDaughter;fontSize=15;rotation=-15;" parent="1" vertex="1">
                    <mxGeometry x="105.72" y="-85" width="150.28" height="30" as="geometry"/>
                </mxCell>
                <mxCell id="t8sNuPc-GYWIgQTRH9a9-104" value="0x123...fe13" style="text;strokeColor=none;fillColor=none;html=1;align=center;verticalAlign=middle;whiteSpace=wrap;rounded=0;sketch=1;hachureGap=4;fontFamily=Architects Daughter;fontSource=https%3A%2F%2Ffonts.googleapis.com%2Fcss%3Ffamily%3DArchitects%2BDaughter;fontSize=15;" parent="1" vertex="1">
                    <mxGeometry x="199" y="738" width="60" height="30" as="geometry"/>
                </mxCell>
                <mxCell id="t8sNuPc-GYWIgQTRH9a9-105" value="Disconnect" style="ellipse;whiteSpace=wrap;html=1;sketch=1;hachureGap=4;fontFamily=Architects Daughter;fontSource=https%3A%2F%2Ffonts.googleapis.com%2Fcss%3Ffamily%3DArchitects%2BDaughter;fontSize=15;" parent="1" vertex="1">
                    <mxGeometry x="273" y="738" width="102" height="33" as="geometry"/>
                </mxCell>
            </root>
        </mxGraphModel>
    </diagram>
</mxfile>